<svg width="246" height="420" viewBox="0 0 246 420" fill="none" xmlns="http://www.w3.org/2000/svg">
<path d="M138.183 201.854H143.92V42.966H245.531V37.1988C245.531 16.725 228.966 0 208.601 0H0V5.76725C0 26.3131 16.5647 42.966 36.9301 42.966H94.5123L92.5761 47.0752C76.8719 80.4531 42.9536 102.008 6.16696 102.008H0.358544V144.974H6.16696C39.2965 144.974 71.422 132.935 96.5201 111.164L101.253 107.055V164.655C101.253 185.129 117.818 201.854 138.183 201.854Z" fill="#F2661D"/>
<path d="M219.358 92.709C205.088 92.709 193.543 104.316 193.543 118.662C193.543 133.008 205.16 144.614 219.358 144.614C233.557 144.614 245.173 133.008 245.173 118.662C245.173 104.316 233.628 92.709 219.358 92.709Z" fill="#F2661D"/>
<path d="M245.531 382.801V377.034H144.278V346.54L146.573 346.107C203.653 334.645 245.101 283.749 245.101 225.067V218.507H202.362L202.506 224.995C202.506 259.671 180.635 290.309 148.007 301.339L144.207 302.637V255.273C144.207 234.799 127.642 218.146 107.348 218.146H101.611V302.853L97.8826 301.627C64.8248 290.886 42.5951 260.175 42.5951 225.139V218.579L0.143418 218.507L0 225.139C0 284.181 41.8063 335.077 99.3168 346.252L101.611 346.684V377.034H37.2886C16.9233 377.034 0.358544 393.687 0.358544 414.233V420H208.673C229.038 420 245.531 403.347 245.531 382.874V382.801Z" fill="#F2661D"/>
</svg>
